<svg width="24" height="24" viewBox="0 0 24 24" fill="none" xmlns="http://www.w3.org/2000/svg">
<path d="M17.4998 21C16.7907 21 16.1887 20.752 15.6937 20.2561C15.1988 19.7601 14.9514 19.1579 14.9514 18.4494C14.9514 18.3547 14.9842 18.1245 15.0497 17.7588L8.3125 13.7927C8.08419 14.0295 7.81292 14.215 7.49871 14.3492C7.1845 14.4834 6.84787 14.5506 6.48882 14.5506C5.78287 14.5506 5.18279 14.3016 4.68858 13.8036C4.19437 13.3056 3.94727 12.7044 3.94727 12C3.94727 11.2956 4.19437 10.6944 4.68858 10.1964C5.18279 9.69845 5.78287 9.44945 6.48882 9.44945C6.84787 9.44945 7.1845 9.51655 7.49871 9.65076C7.81292 9.78497 8.08419 9.9705 8.3125 10.2073L15.0497 6.25018C15.0121 6.13366 14.9863 6.0195 14.9723 5.90771C14.9584 5.79592 14.9514 5.67687 14.9514 5.55055C14.9514 4.84208 15.1996 4.23987 15.6958 3.74392C16.1922 3.24797 16.795 3 17.5041 3C18.2132 3 18.8152 3.24821 19.31 3.74463C19.805 4.24089 20.0525 4.84358 20.0525 5.55269C20.0525 6.26179 19.8046 6.86384 19.3086 7.35884C18.8127 7.85368 18.2104 8.10111 17.502 8.10111C17.1412 8.10111 16.8057 8.0325 16.4954 7.89529C16.185 7.75808 15.9156 7.57105 15.6873 7.33421L8.95008 11.3004C8.98766 11.4171 9.01348 11.5312 9.02753 11.6428C9.04142 11.7546 9.04837 11.8737 9.04837 12C9.04837 12.1263 9.04142 12.2454 9.02753 12.3572C9.01348 12.4688 8.98766 12.5829 8.95008 12.6996L15.6873 16.6658C15.9156 16.4289 16.185 16.2419 16.4954 16.1047C16.8057 15.9675 17.1412 15.8989 17.502 15.8989C18.2104 15.8989 18.8127 16.147 19.3086 16.6433C19.8046 17.1397 20.0525 17.7425 20.0525 18.4516C20.0525 19.1607 19.8043 19.7627 19.3079 20.2575C18.8116 20.7525 18.2089 21 17.4998 21ZM17.502 19.5789C17.822 19.5789 18.0903 19.4707 18.3068 19.2542C18.5232 19.0378 18.6315 18.7695 18.6315 18.4494C18.6315 18.1294 18.5232 17.8611 18.3068 17.6447C18.0903 17.428 17.822 17.3197 17.502 17.3197C17.1819 17.3197 16.9137 17.428 16.6972 17.6447C16.4806 17.8611 16.3722 18.1294 16.3722 18.4494C16.3722 18.7695 16.4806 19.0378 16.6972 19.2542C16.9137 19.4707 17.1819 19.5789 17.502 19.5789ZM6.48882 13.1295C6.8114 13.1295 7.08179 13.0213 7.3 12.8048C7.51837 12.5883 7.62756 12.3201 7.62756 12C7.62756 11.6799 7.51837 11.4117 7.3 11.1952C7.08179 10.9787 6.8114 10.8705 6.48882 10.8705C6.17129 10.8705 5.90516 10.9787 5.69042 11.1952C5.47569 11.4117 5.36832 11.6799 5.36832 12C5.36832 12.3201 5.47569 12.5883 5.69042 12.8048C5.90516 13.0213 6.17129 13.1295 6.48882 13.1295ZM17.502 6.68029C17.822 6.68029 18.0903 6.57197 18.3068 6.35534C18.5232 6.13887 18.6315 5.87061 18.6315 5.55055C18.6315 5.2305 18.5232 4.96224 18.3068 4.74576C18.0903 4.52929 17.822 4.42105 17.502 4.42105C17.1819 4.42105 16.9137 4.52929 16.6972 4.74576C16.4806 4.96224 16.3722 5.2305 16.3722 5.55055C16.3722 5.87061 16.4806 6.13887 16.6972 6.35534C16.9137 6.57197 17.1819 6.68029 17.502 6.68029Z" fill="white"/>
</svg>
