<svg width="34" height="25" viewBox="0 0 34 25" fill="none" xmlns="http://www.w3.org/2000/svg">
<g clip-path="url(#clip0_41_11575)">
<mask id="mask0_41_11575" style="mask-type:alpha" maskUnits="userSpaceOnUse" x="14" y="0" width="20" height="20">
<path d="M34 0H14V20H34V0Z" fill="black"/>
</mask>
<g mask="url(#mask0_41_11575)">
<path d="M24.0001 17.917C22.9051 17.917 21.8759 17.7092 20.9124 17.2937C19.949 16.8781 19.1109 16.3142 18.3983 15.6018C17.6856 14.8894 17.1214 14.0517 16.7056 13.0887C16.2899 12.1256 16.082 11.0967 16.082 10.0017C16.082 8.90674 16.2899 7.87755 16.7056 6.91408C17.1211 5.9506 17.6852 5.11255 18.3977 4.39991C19.1102 3.68727 19.948 3.12303 20.9112 2.7072C21.8744 2.29151 22.9035 2.08366 23.9987 2.08366C24.473 2.08366 24.9377 2.12241 25.3929 2.19991C25.848 2.27741 26.2866 2.39623 26.7087 2.55637C26.9473 2.64123 27.0978 2.76581 27.1601 2.93012C27.2224 3.09443 27.2268 3.25408 27.1733 3.40908C27.1199 3.56393 27.0235 3.68435 26.8841 3.77033C26.7447 3.8563 26.5889 3.86408 26.417 3.79366C26.0398 3.64185 25.6517 3.52727 25.2527 3.44991C24.8535 3.37241 24.4355 3.33366 23.9987 3.33366C22.1515 3.33366 20.5786 3.98297 19.2799 5.28158C17.9813 6.58018 17.332 8.1531 17.332 10.0003C17.332 11.8476 17.9813 13.4205 19.2799 14.7191C20.5786 16.0177 22.1515 16.667 23.9987 16.667C25.8459 16.667 27.4189 16.0177 28.7174 14.7191C30.016 13.4205 30.6654 11.8476 30.6654 10.0003C30.6654 9.72366 30.6489 9.44849 30.6158 9.17491C30.5826 8.90132 30.5329 8.63533 30.4666 8.37699C30.4133 8.18255 30.4387 8.02331 30.5429 7.89928C30.6469 7.77539 30.7764 7.69533 30.9314 7.65908C31.0863 7.62268 31.2405 7.6438 31.3941 7.72241C31.5476 7.80088 31.6508 7.95012 31.7037 8.17012C31.7785 8.46399 31.8325 8.76291 31.8656 9.06683C31.8988 9.37066 31.9154 9.68183 31.9154 10.0003C31.9154 11.0955 31.7076 12.1247 31.292 13.0878C30.8764 14.051 30.3125 14.8889 29.6002 15.6014C28.8878 16.3139 28.0501 16.8779 27.087 17.2935C26.1239 17.7092 25.095 17.917 24.0001 17.917ZM30.8737 3.95866H29.832C29.6549 3.95866 29.5065 3.89873 29.3869 3.77887C29.2669 3.65901 29.207 3.51053 29.207 3.33345C29.207 3.15623 29.2669 3.00783 29.3869 2.88824C29.5065 2.76852 29.6549 2.70866 29.832 2.70866H30.8737V1.66699C30.8737 1.48991 30.9336 1.34151 31.0534 1.22178C31.1734 1.10193 31.3219 1.04199 31.4989 1.04199C31.6761 1.04199 31.8245 1.10193 31.9441 1.22178C32.0639 1.34151 32.1237 1.48991 32.1237 1.66699V2.70866H33.1654C33.3424 2.70866 33.4909 2.76859 33.6106 2.88845C33.7304 3.00831 33.7904 3.15678 33.7904 3.33387C33.7904 3.51109 33.7304 3.65949 33.6106 3.77908C33.4909 3.8988 33.3424 3.95866 33.1654 3.95866H32.1237V5.00033C32.1237 5.17741 32.0638 5.32581 31.9439 5.44553C31.824 5.56539 31.6755 5.62533 31.4985 5.62533C31.3213 5.62533 31.1729 5.56539 31.0533 5.44553C30.9335 5.32581 30.8737 5.17741 30.8737 5.00033V3.95866ZM26.837 9.00674C27.1404 9.00674 27.3975 8.90058 27.6085 8.68824C27.8194 8.47599 27.9249 8.21831 27.9249 7.91512C27.9249 7.61193 27.8189 7.35484 27.6066 7.14387C27.3944 6.93276 27.1366 6.8272 26.8333 6.8272C26.5301 6.8272 26.273 6.93338 26.062 7.14574C25.851 7.35797 25.7455 7.61568 25.7455 7.91887C25.7455 8.22206 25.8517 8.47916 26.0639 8.69008C26.2761 8.90124 26.5339 9.00674 26.837 9.00674ZM21.1641 9.00674C21.4673 9.00674 21.7244 8.90058 21.9354 8.68824C22.1463 8.47599 22.2518 8.21831 22.2518 7.91512C22.2518 7.61193 22.1457 7.35484 21.9335 7.14387C21.7213 6.93276 21.4636 6.8272 21.1604 6.8272C20.857 6.8272 20.5999 6.93338 20.3889 7.14574C20.1779 7.35797 20.0724 7.61568 20.0724 7.91887C20.0724 8.22206 20.1786 8.47916 20.3908 8.69008C20.603 8.90124 20.8608 9.00674 21.1641 9.00674ZM23.9987 14.3272C24.7466 14.3272 25.4365 14.1502 26.0684 13.796C26.7004 13.4418 27.2135 12.9613 27.6079 12.3545C27.6868 12.2028 27.6843 12.0503 27.6004 11.897C27.5166 11.7437 27.3855 11.667 27.207 11.667H20.7904C20.6119 11.667 20.4808 11.7437 20.397 11.897C20.3131 12.0503 20.3106 12.2028 20.3895 12.3545C20.7838 12.9613 21.3002 13.4418 21.9387 13.796C22.577 14.1502 23.2637 14.3272 23.9987 14.3272Z" fill="white"/>
</g>
</g>
<defs>
<clipPath id="clip0_41_11575">
<rect width="20" height="20" fill="white" transform="translate(14)"/>
</clipPath>
</defs>
</svg>
