<svg width="48" height="48" viewBox="0 0 48 48" fill="none" xmlns="http://www.w3.org/2000/svg">
<mask id="path-1-inside-1_40_7107" fill="white">
<path d="M0 24C0 10.7452 10.7452 0 24 0V0C37.2548 0 48 10.7452 48 24V24C48 37.2548 37.2548 48 24 48V48C10.7452 48 0 37.2548 0 24V24Z"/>
</mask>
<path d="M0 24M48 24M48 24M0 24M24 0M48 24M24 48M0 24M24 48V47C11.2975 47 1 36.7025 1 24H0H-1C-1 37.8071 10.1929 49 24 49V48ZM48 24H47C47 36.7025 36.7025 47 24 47V48V49C37.8071 49 49 37.8071 49 24H48ZM24 0V1C36.7025 1 47 11.2975 47 24H48H49C49 10.1929 37.8071 -1 24 -1V0ZM24 0V-1C10.1929 -1 -1 10.1929 -1 24H0H1C1 11.2975 11.2975 1 24 1V0Z" fill="white" mask="url(#path-1-inside-1_40_7107)"/>
<path d="M23.9933 32C23.7929 32 23.5917 31.9629 23.3896 31.8886C23.1875 31.8142 23.0096 31.6978 22.856 31.5394L21.5119 30.2777C19.8529 28.7157 18.3718 27.1812 17.0684 25.6742C15.765 24.1672 15.1133 22.5529 15.1133 20.8311C15.1133 19.4599 15.561 18.3118 16.4564 17.387C17.352 16.4623 18.4638 16 19.7916 16C20.5461 16 21.2914 16.1796 22.0275 16.5389C22.7634 16.8982 23.4216 17.4816 24.0022 18.2892C24.5828 17.4816 25.241 16.8982 25.977 16.5389C26.713 16.1796 27.4583 16 28.2127 16C29.5406 16 30.6524 16.4623 31.5479 17.387C32.4434 18.3118 32.8911 19.4599 32.8911 20.8311C32.8911 22.5715 32.2283 24.2039 30.9028 25.7281C29.5773 27.2523 28.0994 28.7737 26.4691 30.2925L25.1393 31.5394C24.9858 31.6978 24.8066 31.8142 24.6015 31.8886C24.3963 31.9629 24.1936 32 23.9933 32ZM23.3292 19.7571C22.823 18.9606 22.2901 18.3769 21.7304 18.0059C21.1708 17.6348 20.5246 17.4493 19.7916 17.4493C18.856 17.4493 18.0762 17.7714 17.4525 18.4155C16.8287 19.0597 16.5168 19.8649 16.5168 20.8311C16.5168 21.6065 16.7588 22.4172 17.2429 23.2633C17.7269 24.1093 18.3345 24.9504 19.0656 25.7865C19.7966 26.6228 20.5887 27.4397 21.4417 28.2373C22.2946 29.0351 23.0851 29.7765 23.8132 30.4615C23.8672 30.5111 23.9302 30.5359 24.0022 30.5359C24.0743 30.5359 24.1373 30.5111 24.1912 30.4615C24.9193 29.7765 25.7098 29.0351 26.5627 28.2373C27.4157 27.4397 28.2078 26.6228 28.9388 25.7865C29.6699 24.9504 30.2775 24.1093 30.7615 23.2633C31.2456 22.4172 31.4876 21.6065 31.4876 20.8311C31.4876 19.8649 31.1757 19.0597 30.5519 18.4155C29.9281 17.7714 29.1484 17.4493 28.2127 17.4493C27.4798 17.4493 26.8336 17.6348 26.274 18.0059C25.7143 18.3769 25.1814 18.9606 24.6752 19.7571C24.596 19.881 24.4964 19.9739 24.3765 20.0359C24.2566 20.0977 24.1318 20.1286 24.0022 20.1286C23.8726 20.1286 23.7479 20.0977 23.6279 20.0359C23.508 19.9739 23.4085 19.881 23.3292 19.7571Z" fill="white"/>
</svg>
