<svg width="44" height="44" viewBox="0 0 44 44" fill="none" xmlns="http://www.w3.org/2000/svg">
<path d="M13.9974 32.8064L21.8709 24.9329L29.7445 32.8064L32.8064 29.7445L24.9329 21.8709L32.8064 13.9974L29.7445 10.9355L21.8709 18.809L13.9974 10.9355L10.9355 13.9974L18.809 21.8709L10.9355 29.7445L13.9974 32.8064ZM21.8709 43.7419C18.8455 43.7419 16.0022 43.1677 13.3413 42.0195C10.6803 40.8713 8.36563 39.313 6.39725 37.3446C4.42886 35.3762 2.87056 33.0616 1.72234 30.4006C0.574112 27.7396 0 24.8964 0 21.8709C0 18.8455 0.574112 16.0022 1.72234 13.3413C2.87056 10.6803 4.42886 8.36563 6.39725 6.39725C8.36563 4.42886 10.6803 2.87056 13.3413 1.72234C16.0022 0.574112 18.8455 0 21.8709 0C24.8964 0 27.7396 0.574112 30.4006 1.72234C33.0616 2.87056 35.3762 4.42886 37.3446 6.39725C39.313 8.36563 40.8713 10.6803 42.0195 13.3413C43.1677 16.0022 43.7419 18.8455 43.7419 21.8709C43.7419 24.8964 43.1677 27.7396 42.0195 30.4006C40.8713 33.0616 39.313 35.3762 37.3446 37.3446C35.3762 39.313 33.0616 40.8713 30.4006 42.0195C27.7396 43.1677 24.8964 43.7419 21.8709 43.7419ZM21.8709 39.3677C26.7554 39.3677 30.8927 37.6727 34.2827 34.2827C37.6727 30.8927 39.3677 26.7554 39.3677 21.8709C39.3677 16.9864 37.6727 12.8492 34.2827 9.45918C30.8927 6.06918 26.7554 4.37419 21.8709 4.37419C16.9864 4.37419 12.8492 6.06918 9.45918 9.45918C6.06918 12.8492 4.37419 16.9864 4.37419 21.8709C4.37419 26.7554 6.06918 30.8927 9.45918 34.2827C12.8492 37.6727 16.9864 39.3677 21.8709 39.3677Z" fill="#898989"/>
</svg>
