<svg width="32" height="32" viewBox="0 0 32 32" fill="none" xmlns="http://www.w3.org/2000/svg">
<g clip-path="url(#clip0_41_11365)">
<mask id="mask0_41_11365" style="mask-type:alpha" maskUnits="userSpaceOnUse" x="0" y="0" width="32" height="32">
<path d="M32 0H0V32H32V0Z" fill="#D9D9D9"/>
</mask>
<g mask="url(#mask0_41_11365)">
<path d="M25.1274 15.9667C25.1274 14.1334 24.6362 12.4602 23.6537 10.9474C22.6713 9.43425 21.354 8.30225 19.7017 7.55136C19.4453 7.43003 19.2564 7.2488 19.1351 7.00769C19.0137 6.7668 18.9988 6.52103 19.0904 6.27036C19.2004 6.00303 19.3913 5.81725 19.6631 5.71303C19.9348 5.60858 20.2101 5.61714 20.4887 5.73869C22.499 6.65136 24.108 8.02469 25.3157 9.8587C26.5233 11.6925 27.1271 13.7284 27.1271 15.9664C27.1271 18.2041 26.5233 20.2401 25.3157 22.0744C24.108 23.9086 22.499 25.282 20.4887 26.1947C20.2101 26.3162 19.9348 26.3248 19.6631 26.2204C19.3913 26.1161 19.2004 25.9304 19.0904 25.663C18.9988 25.4124 19.0137 25.1666 19.1351 24.9257C19.2564 24.6846 19.4453 24.5034 19.7017 24.382C21.354 23.6311 22.6713 22.4991 23.6537 20.986C24.6362 19.4731 25.1274 17.8 25.1274 15.9667ZM9.81976 19.3334H6.07609C5.73453 19.3334 5.44831 19.2178 5.21742 18.9867C4.98653 18.7558 4.87109 18.4696 4.87109 18.128V13.872C4.87109 13.5305 4.98653 13.2443 5.21742 13.0134C5.44831 12.7823 5.73453 12.6667 6.07609 12.6667H9.81976L13.8094 8.67703C14.129 8.35747 14.4968 8.28536 14.9131 8.46069C15.3293 8.63603 15.5374 8.94914 15.5374 9.40003V22.6C15.5374 23.0509 15.3293 23.364 14.9131 23.5394C14.4968 23.7147 14.129 23.6426 13.8094 23.323L9.81976 19.3334ZM21.5374 16.0014C21.5374 16.8331 21.3647 17.6204 21.0194 18.363C20.6743 19.1057 20.209 19.73 19.6234 20.236C19.4345 20.3625 19.2362 20.3753 19.0284 20.2744C18.8208 20.1735 18.7171 20.0068 18.7171 19.7744V12.159C18.7171 11.9266 18.8208 11.7599 19.0284 11.659C19.2362 11.5581 19.4345 11.5702 19.6234 11.6954C20.209 12.2165 20.6743 12.8565 21.0194 13.6154C21.3647 14.3745 21.5374 15.1698 21.5374 16.0014ZM13.5374 11.8L10.6707 14.6667H6.87076V17.3334H10.6707L13.5374 20.2V11.8Z" fill="#D9D9D9"/>
</g>
</g>
<defs>
<clipPath id="clip0_41_11365">
<rect width="32" height="32" fill="white"/>
</clipPath>
</defs>
</svg>
