<svg width="44" height="44" viewBox="0 0 44 44" fill="none" xmlns="http://www.w3.org/2000/svg">
<path d="M0 10C0 4.47715 4.47715 0 10 0H34C39.5228 0 44 4.47715 44 10V34C44 39.5228 39.5228 44 34 44H10C4.47715 44 0 39.5228 0 34V10Z" fill="url(#paint0_linear_23_448)"/>
<path d="M30.1667 11.5H13.8333C12.5447 11.5 11.5 12.5447 11.5 13.8333V30.1667C11.5 31.4553 12.5447 32.5 13.8333 32.5H30.1667C31.4553 32.5 32.5 31.4553 32.5 30.1667V13.8333C32.5 12.5447 31.4553 11.5 30.1667 11.5Z" stroke="white" stroke-width="2.33333" stroke-linecap="round" stroke-linejoin="round"/>
<path d="M16.166 11.5V32.5" stroke="white" stroke-width="2.33333" stroke-linecap="round" stroke-linejoin="round"/>
<path d="M11.5 16.75H16.1667" stroke="white" stroke-width="2.33333" stroke-linecap="round" stroke-linejoin="round"/>
<path d="M11.5 22H32.5" stroke="white" stroke-width="2.33333" stroke-linecap="round" stroke-linejoin="round"/>
<path d="M11.5 27.25H16.1667" stroke="white" stroke-width="2.33333" stroke-linecap="round" stroke-linejoin="round"/>
<path d="M27.834 11.5V32.5" stroke="white" stroke-width="2.33333" stroke-linecap="round" stroke-linejoin="round"/>
<path d="M27.834 16.75H32.5007" stroke="white" stroke-width="2.33333" stroke-linecap="round" stroke-linejoin="round"/>
<path d="M27.834 27.25H32.5007" stroke="white" stroke-width="2.33333" stroke-linecap="round" stroke-linejoin="round"/>
<defs>
<linearGradient id="paint0_linear_23_448" x1="0" y1="0" x2="44" y2="44" gradientUnits="userSpaceOnUse">
<stop stop-color="#7796EB"/>
<stop offset="1" stop-color="#1C4ED8"/>
</linearGradient>
</defs>
</svg>
