<svg width="32" height="32" viewBox="0 0 32 32" fill="none" xmlns="http://www.w3.org/2000/svg">
<g clip-path="url(#clip0_41_11384)">
<mask id="mask0_41_11384" style="mask-type:alpha" maskUnits="userSpaceOnUse" x="0" y="0" width="32" height="32">
<path d="M32 0H0V32H32V0Z" fill="#D9D9D9"/>
</mask>
<g mask="url(#mask0_41_11384)">
<path d="M9.33203 18V26.6667C9.33203 26.95 9.23614 27.1874 9.04437 27.379C8.85259 27.5708 8.61503 27.6667 8.3317 27.6667C8.04814 27.6667 7.8107 27.5708 7.61937 27.379C7.42781 27.1874 7.33203 26.95 7.33203 26.6667V7.20533C7.33203 6.86378 7.44759 6.57756 7.6787 6.34667C7.90959 6.11556 8.19581 6 8.53737 6H17.1294C17.4141 6 17.6682 6.08933 17.8917 6.268C18.1151 6.44667 18.2558 6.67867 18.3141 6.964L18.6601 8.66667H24.7934C25.1349 8.66667 25.4212 8.78167 25.652 9.01167C25.8832 9.24167 25.9987 9.52667 25.9987 9.86667V19.467C25.9987 19.807 25.8832 20.0919 25.652 20.3217C25.4212 20.5517 25.1349 20.6667 24.7934 20.6667H18.8681C18.5834 20.6667 18.3293 20.5773 18.1057 20.3987C17.8824 20.22 17.7416 19.988 17.6834 19.7027L17.3374 18H9.33203ZM19.5321 18.6667H23.9987V10.6667H17.9961C17.7116 10.6667 17.4576 10.5773 17.2341 10.3987C17.0105 10.22 16.8696 9.988 16.8114 9.70267L16.4654 8H9.33203V16H18.0014C18.2858 16 18.5398 16.0893 18.7634 16.268C18.9869 16.4467 19.1278 16.6787 19.1861 16.964L19.5321 18.6667Z" fill="#D9D9D9"/>
</g>
</g>
<defs>
<clipPath id="clip0_41_11384">
<rect width="32" height="32" fill="white"/>
</clipPath>
</defs>
</svg>
