<svg width="32" height="32" viewBox="0 0 32 32" fill="none" xmlns="http://www.w3.org/2000/svg">
<g clip-path="url(#clip0_41_11404)">
<mask id="mask0_41_11404" style="mask-type:alpha" maskUnits="userSpaceOnUse" x="0" y="0" width="32" height="32">
<path d="M32 0H0V32H32V0Z" fill="#D9D9D9"/>
</mask>
<g mask="url(#mask0_41_11404)">
<path d="M9.83464 22.411V9.59031C9.83464 9.30698 9.93053 9.06953 10.1223 8.87798C10.3141 8.6862 10.5517 8.59031 10.835 8.59031C11.1186 8.59031 11.356 8.6862 11.5473 8.87798C11.7389 9.06953 11.8347 9.30698 11.8347 9.59031V22.411C11.8347 22.6943 11.7388 22.9318 11.547 23.1233C11.3552 23.3151 11.1177 23.411 10.8343 23.411C10.5508 23.411 10.3133 23.3151 10.122 23.1233C9.93042 22.9318 9.83464 22.6943 9.83464 22.411ZM15.0013 27.6673V4.33398C15.0013 4.05064 15.0972 3.8132 15.289 3.62164C15.4808 3.42987 15.7183 3.33398 16.0017 3.33398C16.2852 3.33398 16.5227 3.42987 16.714 3.62164C16.9056 3.8132 17.0013 4.05064 17.0013 4.33398V27.6673C17.0013 27.9507 16.9054 28.1881 16.7137 28.3797C16.5219 28.5714 16.2843 28.6673 16.001 28.6673C15.7175 28.6673 15.48 28.5714 15.2887 28.3797C15.0971 28.1881 15.0013 27.9507 15.0013 27.6673ZM4.66797 17.2057V14.7957C4.66797 14.5123 4.76386 14.2748 4.95564 14.083C5.14742 13.8914 5.38497 13.7957 5.66831 13.7957C5.95186 13.7957 6.18931 13.8914 6.38064 14.083C6.5722 14.2748 6.66797 14.5123 6.66797 14.7957V17.2057C6.66797 17.489 6.57209 17.7266 6.38031 17.9183C6.18853 18.1099 5.95097 18.2057 5.66764 18.2057C5.38409 18.2057 5.14664 18.1099 4.95531 17.9183C4.76375 17.7266 4.66797 17.489 4.66797 17.2057ZM20.168 22.411V9.59031C20.168 9.30698 20.2639 9.06953 20.4557 8.87798C20.6475 8.6862 20.885 8.59031 21.1683 8.59031C21.4519 8.59031 21.6893 8.6862 21.8807 8.87798C22.0722 9.06953 22.168 9.30698 22.168 9.59031V22.411C22.168 22.6943 22.0721 22.9318 21.8803 23.1233C21.6886 23.3151 21.451 23.411 21.1677 23.411C20.8841 23.411 20.6467 23.3151 20.4553 23.1233C20.2638 22.9318 20.168 22.6943 20.168 22.411ZM25.3347 17.2057V14.7957C25.3347 14.5123 25.4306 14.2748 25.6223 14.083C25.8141 13.8914 26.0517 13.7957 26.335 13.7957C26.6186 13.7957 26.856 13.8914 27.0473 14.083C27.2389 14.2748 27.3347 14.5123 27.3347 14.7957V17.2057C27.3347 17.489 27.2388 17.7266 27.047 17.9183C26.8552 18.1099 26.6177 18.2057 26.3343 18.2057C26.0508 18.2057 25.8133 18.1099 25.622 17.9183C25.4305 17.7266 25.3347 17.489 25.3347 17.2057Z" fill="#D9D9D9"/>
</g>
</g>
<defs>
<clipPath id="clip0_41_11404">
<rect width="32" height="32" fill="white"/>
</clipPath>
</defs>
</svg>
