<svg width="24" height="24" viewBox="0 0 24 24" fill="none" xmlns="http://www.w3.org/2000/svg">
<g clip-path="url(#clip0_23_346)">
<mask id="mask0_23_346" style="mask-type:alpha" maskUnits="userSpaceOnUse" x="0" y="0" width="24" height="24">
<path d="M24 0H0V24H24V0Z" fill="#D9D9D9"/>
</mask>
<g mask="url(#mask0_23_346)">
<path d="M14.5775 22.423C14.1928 22.423 13.8659 22.2884 13.5967 22.0193C13.3274 21.7499 13.1927 21.423 13.1927 21.0385V14.577C13.1927 14.1923 13.3274 13.8654 13.5967 13.5963C13.8659 13.3269 14.1928 13.1923 14.5775 13.1923H21.039C21.4235 13.1923 21.7504 13.3269 22.0197 13.5963C22.2889 13.8654 22.4235 14.1923 22.4235 14.577V21.0385C22.4235 21.423 22.2889 21.7499 22.0197 22.0193C21.7504 22.2884 21.4235 22.423 21.039 22.423H14.5775ZM11.0005 17.4057V21.5H10.739C10.398 21.5 10.1291 21.3868 9.93223 21.1605C9.7354 20.9343 9.61007 20.6558 9.55623 20.325L9.31198 18.4538C9.04415 18.3641 8.76948 18.2385 8.48798 18.077C8.20665 17.9153 7.95507 17.7422 7.73323 17.5577L6.00048 18.2943C5.68632 18.4328 5.37065 18.4462 5.05348 18.3345C4.73615 18.223 4.48965 18.0205 4.31398 17.727L3.18698 15.773C3.01132 15.4795 2.96073 15.1689 3.03523 14.8413C3.10957 14.5138 3.28007 14.2436 3.54673 14.0308L5.04473 12.9058C5.02173 12.7571 5.0054 12.6077 4.99573 12.4578C4.98607 12.3078 4.98123 12.1583 4.98123 12.0095C4.98123 11.8673 4.98607 11.7228 4.99573 11.576C5.0054 11.4292 5.02173 11.2686 5.04473 11.0943L3.54673 9.96925C3.28007 9.75642 3.11115 9.48458 3.03998 9.15375C2.96882 8.82308 3.02107 8.51092 3.19673 8.21725L4.31398 6.29225C4.48965 6.00508 4.73615 5.80417 5.05348 5.6895C5.37065 5.57467 5.68632 5.5865 6.00048 5.725L7.72348 6.452C7.96465 6.261 8.22207 6.08633 8.49573 5.928C8.7694 5.76967 9.03832 5.64242 9.30248 5.54625L9.55623 3.675C9.61007 3.34417 9.76107 3.06567 10.0092 2.8395C10.2572 2.61317 10.5517 2.5 10.8927 2.5H13.1082C13.4492 2.5 13.7437 2.61317 13.9917 2.8395C14.2399 3.06567 14.3909 3.34417 14.4447 3.675L14.689 5.55575C14.989 5.66475 15.2604 5.792 15.5032 5.9375C15.7462 6.083 15.9915 6.2545 16.239 6.452L18.0102 5.725C18.3242 5.5865 18.6399 5.57467 18.9572 5.6895C19.2746 5.80417 19.521 6.00508 19.6965 6.29225L20.814 8.227C20.9897 8.5205 21.0402 8.83358 20.9657 9.16625C20.8914 9.49892 20.7209 9.76658 20.4542 9.96925L19.5465 10.65C19.371 10.7782 19.1877 10.8336 18.9965 10.8163C18.8055 10.7989 18.6376 10.7076 18.4927 10.5423C18.3479 10.3769 18.2857 10.193 18.3062 9.9905C18.3267 9.78783 18.4197 9.61725 18.585 9.47875L19.435 8.85L18.4505 7.15L15.937 8.2095C15.6023 7.85183 15.2014 7.53583 14.7342 7.2615C14.2669 6.98717 13.7942 6.79292 13.316 6.67875L13.0005 4H11.016L10.685 6.66925C10.1748 6.78975 9.70374 6.97433 9.27174 7.223C8.83957 7.47183 8.42732 7.79233 8.03498 8.1845L5.55048 7.15L4.56598 8.85L6.72548 10.4595C6.64215 10.6968 6.58382 10.9437 6.55048 11.2C6.51715 11.4563 6.50048 11.7262 6.50048 12.0095C6.50048 12.2698 6.51715 12.525 6.55048 12.775C6.58382 13.025 6.63898 13.2718 6.71598 13.5155L4.56598 15.15L5.55048 16.85L8.02548 15.8C8.42548 16.2103 8.87965 16.5497 9.38799 16.8182C9.89632 17.0869 10.4338 17.2827 11.0005 17.4057ZM12.012 9C11.18 9 10.472 9.28942 9.88798 9.86825C9.30398 10.4471 9.01198 11.1577 9.01198 12C9.01198 12.3308 9.06365 12.6501 9.16698 12.9578C9.27015 13.2654 9.4249 13.5533 9.63123 13.8212C9.77607 14.0071 9.9559 14.1205 10.1707 14.1615C10.3854 14.2025 10.5806 14.1506 10.7562 14.0058C10.9319 13.8711 11.031 13.7015 11.0535 13.497C11.0758 13.2927 11.0146 13.1161 10.8697 12.9672C10.7506 12.8339 10.6612 12.6868 10.6015 12.526C10.5418 12.365 10.512 12.1897 10.512 12C10.512 11.5833 10.6578 11.2292 10.9495 10.9375C11.2412 10.6458 11.5953 10.5 12.012 10.5C12.1915 10.5 12.3668 10.534 12.538 10.602C12.7092 10.6698 12.8614 10.7634 12.9947 10.8828C13.1434 11.0071 13.3123 11.0564 13.5015 11.0307C13.6905 11.0051 13.8523 10.9044 13.987 10.7288C14.1217 10.5533 14.171 10.3607 14.135 10.151C14.0992 9.94133 13.9934 9.76408 13.8177 9.61925C13.5972 9.41925 13.3299 9.26608 13.0157 9.15975C12.7017 9.05325 12.3672 9 12.012 9ZM17.8082 18.7307C17.3916 18.7307 16.988 18.7898 16.5975 18.9078C16.2072 19.0256 15.8434 19.2044 15.5062 19.4443C15.3024 19.5839 15.1479 19.7288 15.0427 19.8788C14.9376 20.0288 14.885 20.1839 14.885 20.3443C14.885 20.4481 14.9235 20.5384 15.0005 20.6152C15.0773 20.6922 15.1677 20.7307 15.2717 20.7307H20.4447C20.5216 20.7307 20.5886 20.6939 20.6457 20.6203C20.7027 20.5464 20.7312 20.4544 20.7312 20.3443C20.7312 20.1839 20.6787 20.0288 20.5735 19.8788C20.4683 19.7288 20.3138 19.5839 20.11 19.4443C19.7728 19.2044 19.4091 19.0256 19.0187 18.9078C18.6284 18.7898 18.2249 18.7307 17.8082 18.7307ZM17.8082 17.8077C18.1927 17.8077 18.5197 17.6731 18.789 17.4038C19.0582 17.1346 19.1927 16.8077 19.1927 16.423C19.1927 16.0385 19.0582 15.7116 18.789 15.4423C18.5197 15.1731 18.1927 15.0385 17.8082 15.0385C17.4236 15.0385 17.0967 15.1731 16.8275 15.4423C16.5582 15.7116 16.4235 16.0385 16.4235 16.423C16.4235 16.8077 16.5582 17.1346 16.8275 17.4038C17.0967 17.6731 17.4236 17.8077 17.8082 17.8077Z" fill="#D9D9D9"/>
</g>
</g>
<defs>
<clipPath id="clip0_23_346">
<rect width="24" height="24" fill="white"/>
</clipPath>
</defs>
</svg>
