<svg width="106" height="32" viewBox="0 0 106 32" fill="none" xmlns="http://www.w3.org/2000/svg">
<g clip-path="url(#clip0_41_11481)">
<path d="M8.10314 7.35645L6.06251 11.494L1.49689 12.1596C0.67814 12.2783 0.350015 13.2877 0.943765 13.8658L4.24689 17.0846L3.46564 21.6315C3.32501 22.4533 4.19064 23.069 4.91564 22.6846L9.00002 20.5377L13.0844 22.6846C13.8094 23.0658 14.675 22.4533 14.5344 21.6315L13.7531 17.0846L17.0563 13.8658C17.65 13.2877 17.3219 12.2783 16.5031 12.1596L11.9375 11.494L9.89689 7.35645C9.53127 6.61895 8.47189 6.60958 8.10314 7.35645Z" fill="#636466"/>
</g>
<g clip-path="url(#clip1_41_11481)">
<path d="M30.1031 7.35645L28.0625 11.494L23.4969 12.1596C22.6781 12.2783 22.35 13.2877 22.9438 13.8658L26.2469 17.0846L25.4656 21.6315C25.325 22.4533 26.1906 23.069 26.9156 22.6846L31 20.5377L35.0844 22.6846C35.8094 23.0658 36.675 22.4533 36.5344 21.6315L35.7531 17.0846L39.0563 13.8658C39.65 13.2877 39.3219 12.2783 38.5031 12.1596L33.9375 11.494L31.8969 7.35645C31.5313 6.61895 30.4719 6.60958 30.1031 7.35645Z" fill="#636466"/>
</g>
<g clip-path="url(#clip2_41_11481)">
<path d="M52.1031 7.35645L50.0625 11.494L45.4969 12.1596C44.6781 12.2783 44.35 13.2877 44.9438 13.8658L48.2469 17.0846L47.4656 21.6315C47.325 22.4533 48.1906 23.069 48.9156 22.6846L53 20.5377L57.0844 22.6846C57.8094 23.0658 58.675 22.4533 58.5344 21.6315L57.7531 17.0846L61.0563 13.8658C61.65 13.2877 61.3219 12.2783 60.5031 12.1596L55.9375 11.494L53.8969 7.35645C53.5313 6.61895 52.4719 6.60958 52.1031 7.35645Z" fill="#636466"/>
</g>
<g clip-path="url(#clip3_41_11481)">
<path d="M74.1031 7.35645L72.0625 11.494L67.4969 12.1596C66.6781 12.2783 66.35 13.2877 66.9438 13.8658L70.2469 17.0846L69.4656 21.6315C69.325 22.4533 70.1906 23.069 70.9156 22.6846L75 20.5377L79.0844 22.6846C79.8094 23.0658 80.675 22.4533 80.5344 21.6315L79.7531 17.0846L83.0563 13.8658C83.65 13.2877 83.3219 12.2783 82.5031 12.1596L77.9375 11.494L75.8969 7.35645C75.5313 6.61895 74.4719 6.60958 74.1031 7.35645Z" fill="#636466"/>
</g>
<g clip-path="url(#clip4_41_11481)">
<path d="M96.1031 7.35645L94.0625 11.494L89.4969 12.1596C88.6781 12.2783 88.35 13.2877 88.9438 13.8658L92.2469 17.0846L91.4656 21.6315C91.325 22.4533 92.1906 23.069 92.9156 22.6846L97 20.5377L101.084 22.6846C101.809 23.0658 102.675 22.4533 102.534 21.6315L101.753 17.0846L105.056 13.8658C105.65 13.2877 105.322 12.2783 104.503 12.1596L99.9375 11.494L97.8969 7.35645C97.5313 6.61895 96.4719 6.60958 96.1031 7.35645Z" fill="#636466"/>
</g>
<defs>
<clipPath id="clip0_41_11481">
<rect width="18" height="18" fill="white" transform="translate(0 5.7998)"/>
</clipPath>
<clipPath id="clip1_41_11481">
<rect width="18" height="18" fill="white" transform="translate(22 5.7998)"/>
</clipPath>
<clipPath id="clip2_41_11481">
<rect width="18" height="18" fill="white" transform="translate(44 5.7998)"/>
</clipPath>
<clipPath id="clip3_41_11481">
<rect width="18" height="18" fill="white" transform="translate(66 5.7998)"/>
</clipPath>
<clipPath id="clip4_41_11481">
<rect width="18" height="18" fill="white" transform="translate(88 5.7998)"/>
</clipPath>
</defs>
</svg>
