<svg width="24" height="24" viewBox="0 0 24 24" fill="none" xmlns="http://www.w3.org/2000/svg">
<g clip-path="url(#clip0_32_347)">
<mask id="mask0_32_347" style="mask-type:alpha" maskUnits="userSpaceOnUse" x="0" y="0" width="24" height="24">
<path d="M24 0H0V24H24V0Z" fill="#D9D9D9"/>
</mask>
<g mask="url(#mask0_32_347)">
<path d="M12 21.7207C9.44444 21.7207 7.21778 20.8737 5.32 19.1796C3.42222 17.4855 2.33407 15.3696 2.05556 12.8318H4.33333C4.59259 14.7577 5.44926 16.3503 6.90333 17.6096C8.35741 18.8688 10.0563 19.4985 12 19.4985C14.1667 19.4985 16.0048 18.744 17.5144 17.2351C19.0241 15.7263 19.7785 13.8881 19.7778 11.7207C19.777 9.55329 19.0226 7.71552 17.5144 6.20737C16.0063 4.69922 14.1681 3.94441 12 3.94292C10.7222 3.94292 9.52778 4.23922 8.41667 4.83181C7.30555 5.42441 6.37037 6.23922 5.61111 7.27626H8.66667V9.49848H2V2.83181H4.22222V5.44292C5.16667 4.25774 6.31963 3.34107 7.68111 2.69293C9.04259 2.04478 10.4822 1.7207 12 1.7207C13.3889 1.7207 14.69 1.98478 15.9033 2.51293C17.1167 3.04107 18.1722 3.75367 19.07 4.6507C19.9678 5.54774 20.6807 6.60329 21.2089 7.81737C21.737 9.03144 22.0007 10.3326 22 11.7207C21.9993 13.1088 21.7356 14.41 21.2089 15.624C20.6822 16.8381 19.9693 17.8937 19.07 18.7907C18.1707 19.6877 17.1152 20.4007 15.9033 20.9296C14.6915 21.4585 13.3904 21.7222 12 21.7207ZM15.1111 16.3874L10.8889 12.1651V6.16515H13.1111V11.2763L16.6667 14.8318L15.1111 16.3874Z" fill="#D9D9D9"/>
</g>
</g>
<defs>
<clipPath id="clip0_32_347">
<rect width="24" height="24" fill="white"/>
</clipPath>
</defs>
</svg>
