<svg width="32" height="32" viewBox="0 0 32 32" fill="none" xmlns="http://www.w3.org/2000/svg">
<g clip-path="url(#clip0_41_11394)">
<mask id="mask0_41_11394" style="mask-type:alpha" maskUnits="userSpaceOnUse" x="0" y="0" width="32" height="32">
<path d="M32 0H0V32H32V0Z" fill="#D9D9D9"/>
</mask>
<g mask="url(#mask0_41_11394)">
<path d="M5.74237 26C5.06881 26 4.4987 25.7667 4.03203 25.3C3.56537 24.8333 3.33203 24.2632 3.33203 23.5897V8.41033C3.33203 7.73678 3.56537 7.16667 4.03203 6.7C4.4987 6.23333 5.06881 6 5.74237 6H26.2551C26.9286 6 27.4987 6.23333 27.9654 6.7C28.4321 7.16667 28.6654 7.73678 28.6654 8.41033V23.5897C28.6654 24.2632 28.4321 24.8333 27.9654 25.3C27.4987 25.7667 26.9286 26 26.2551 26H5.74237ZM5.74237 24H26.2551C26.3577 24 26.4517 23.9572 26.5371 23.8717C26.6226 23.7863 26.6654 23.6923 26.6654 23.5897V8.41033C26.6654 8.30767 26.6226 8.21367 26.5371 8.12833C26.4517 8.04278 26.3577 8 26.2551 8H5.74237C5.6397 8 5.5457 8.04278 5.46037 8.12833C5.37481 8.21367 5.33203 8.30767 5.33203 8.41033V23.5897C5.33203 23.6923 5.37481 23.7863 5.46037 23.8717C5.5457 23.9572 5.6397 24 5.74237 24ZM9.38337 20.9487H17.9474C18.2307 20.9487 18.4683 20.8528 18.6601 20.661C18.8516 20.4692 18.9474 20.2317 18.9474 19.9483C18.9474 19.6648 18.8516 19.4273 18.6601 19.236C18.4683 19.0444 18.2307 18.9487 17.9474 18.9487H9.38337C9.10003 18.9487 8.86248 19.0446 8.6707 19.2363C8.47914 19.4281 8.38337 19.6657 8.38337 19.949C8.38337 20.2326 8.47914 20.4701 8.6707 20.6617C8.86248 20.853 9.10003 20.9487 9.38337 20.9487ZM14.0501 15.8973H22.6141C22.8974 15.8973 23.1349 15.8014 23.3267 15.6097C23.5183 15.4181 23.6141 15.1806 23.6141 14.897C23.6141 14.6134 23.5183 14.376 23.3267 14.1847C23.1349 13.9931 22.8974 13.8973 22.6141 13.8973H14.0501C13.7667 13.8973 13.5292 13.9932 13.3374 14.185C13.1458 14.3768 13.0501 14.6144 13.0501 14.898C13.0501 15.1813 13.1458 15.4188 13.3374 15.6103C13.5292 15.8017 13.7667 15.8973 14.0501 15.8973ZM9.3837 15.8973C9.66725 15.8973 9.9047 15.8014 10.0961 15.6097C10.2876 15.4181 10.3834 15.1806 10.3834 14.897C10.3834 14.6134 10.2875 14.376 10.0957 14.1847C9.90392 13.9931 9.66637 13.8973 9.38303 13.8973C9.09948 13.8973 8.86192 13.9932 8.67037 14.185C8.47903 14.3768 8.38337 14.6144 8.38337 14.898C8.38337 15.1813 8.47925 15.4188 8.67103 15.6103C8.86281 15.8017 9.10036 15.8973 9.3837 15.8973ZM22.6144 20.9487C22.8979 20.9487 23.1355 20.8528 23.3271 20.661C23.5184 20.4692 23.6141 20.2317 23.6141 19.9483C23.6141 19.6648 23.5182 19.4273 23.3264 19.236C23.1346 19.0444 22.8971 18.9487 22.6137 18.9487C22.3302 18.9487 22.0927 19.0446 21.9014 19.2363C21.7098 19.4281 21.6141 19.6657 21.6141 19.949C21.6141 20.2326 21.7099 20.4701 21.9017 20.6617C22.0935 20.853 22.3311 20.9487 22.6144 20.9487Z" fill="#D9D9D9"/>
</g>
</g>
<defs>
<clipPath id="clip0_41_11394">
<rect width="32" height="32" fill="white"/>
</clipPath>
</defs>
</svg>
