<svg width="48" height="48" viewBox="0 0 48 48" fill="none" xmlns="http://www.w3.org/2000/svg">
<mask id="path-1-inside-1_2722_6927" fill="white">
<path d="M0 24C0 10.7452 10.7452 0 24 0C37.2548 0 48 10.7452 48 24C48 37.2548 37.2548 48 24 48C10.7452 48 0 37.2548 0 24Z"/>
</mask>
<path d="M0 24M48 24M48 24M0 24M24 0M48 24M24 48M0 24M24 48V47C11.2975 47 1 36.7025 1 24H0H-1C-1 37.8071 10.1929 49 24 49V48ZM48 24H47C47 36.7025 36.7025 47 24 47V48V49C37.8071 49 49 37.8071 49 24H48ZM24 0V1C36.7025 1 47 11.2975 47 24H48H49C49 10.1929 37.8071 -1 24 -1V0ZM24 0V-1C10.1929 -1 -1 10.1929 -1 24H0H1C1 11.2975 11.2975 1 24 1V0Z" fill="white" mask="url(#path-1-inside-1_2722_6927)"/>
<path d="M29.4998 33C28.7907 33 28.1887 32.752 27.6937 32.2561C27.1988 31.7601 26.9514 31.1579 26.9514 30.4494C26.9514 30.3547 26.9842 30.1245 27.0497 29.7588L20.3125 25.7927C20.0842 26.0295 19.8129 26.215 19.4987 26.3492C19.1845 26.4834 18.8479 26.5506 18.4888 26.5506C17.7829 26.5506 17.1828 26.3016 16.6886 25.8036C16.1944 25.3056 15.9473 24.7044 15.9473 24C15.9473 23.2956 16.1944 22.6944 16.6886 22.1964C17.1828 21.6984 17.7829 21.4494 18.4888 21.4494C18.8479 21.4494 19.1845 21.5165 19.4987 21.6508C19.8129 21.785 20.0842 21.9705 20.3125 22.2073L27.0497 18.2502C27.0121 18.1337 26.9863 18.0195 26.9723 17.9077C26.9584 17.7959 26.9514 17.6769 26.9514 17.5505C26.9514 16.8421 27.1996 16.2399 27.6958 15.7439C28.1922 15.248 28.795 15 29.5041 15C30.2132 15 30.8152 15.2482 31.31 15.7446C31.805 16.2409 32.0525 16.8436 32.0525 17.5527C32.0525 18.2618 31.8046 18.8638 31.3086 19.3588C30.8127 19.8537 30.2104 20.1011 29.502 20.1011C29.1412 20.1011 28.8057 20.0325 28.4954 19.8953C28.185 19.7581 27.9156 19.571 27.6873 19.3342L20.9501 23.3004C20.9877 23.4171 21.0135 23.5312 21.0275 23.6428C21.0414 23.7546 21.0484 23.8737 21.0484 24C21.0484 24.1263 21.0414 24.2454 21.0275 24.3572C21.0135 24.4688 20.9877 24.5829 20.9501 24.6996L27.6873 28.6658C27.9156 28.4289 28.185 28.2419 28.4954 28.1047C28.8057 27.9675 29.1412 27.8989 29.502 27.8989C30.2104 27.8989 30.8127 28.147 31.3086 28.6433C31.8046 29.1397 32.0525 29.7425 32.0525 30.4516C32.0525 31.1607 31.8043 31.7627 31.3079 32.2575C30.8116 32.7525 30.2089 33 29.4998 33ZM29.502 31.5789C29.822 31.5789 30.0903 31.4707 30.3068 31.2542C30.5232 31.0378 30.6315 30.7695 30.6315 30.4494C30.6315 30.1294 30.5232 29.8611 30.3068 29.6447C30.0903 29.428 29.822 29.3197 29.502 29.3197C29.1819 29.3197 28.9137 29.428 28.6972 29.6447C28.4806 29.8611 28.3722 30.1294 28.3722 30.4494C28.3722 30.7695 28.4806 31.0378 28.6972 31.2542C28.9137 31.4707 29.1819 31.5789 29.502 31.5789ZM18.4888 25.1295C18.8114 25.1295 19.0818 25.0213 19.3 24.8048C19.5184 24.5883 19.6276 24.3201 19.6276 24C19.6276 23.6799 19.5184 23.4117 19.3 23.1952C19.0818 22.9787 18.8114 22.8705 18.4888 22.8705C18.1713 22.8705 17.9052 22.9787 17.6904 23.1952C17.4757 23.4117 17.3683 23.6799 17.3683 24C17.3683 24.3201 17.4757 24.5883 17.6904 24.8048C17.9052 25.0213 18.1713 25.1295 18.4888 25.1295ZM29.502 18.6803C29.822 18.6803 30.0903 18.572 30.3068 18.3553C30.5232 18.1389 30.6315 17.8706 30.6315 17.5505C30.6315 17.2305 30.5232 16.9622 30.3068 16.7458C30.0903 16.5293 29.822 16.4211 29.502 16.4211C29.1819 16.4211 28.9137 16.5293 28.6972 16.7458C28.4806 16.9622 28.3722 17.2305 28.3722 17.5505C28.3722 17.8706 28.4806 18.1389 28.6972 18.3553C28.9137 18.572 29.1819 18.6803 29.502 18.6803Z" fill="white"/>
</svg>
