<svg width="73" height="70" viewBox="0 0 73 70" fill="none" xmlns="http://www.w3.org/2000/svg">
<rect width="73" height="70" rx="20" fill="#AC206E"/>
<path d="M50.8547 32.2778C56.4063 32.2778 60.9067 27.9623 60.9067 22.6389C60.9067 17.3155 56.4063 13 50.8547 13C45.3032 13 40.8027 17.3155 40.8027 22.6389C40.8027 27.9623 45.3032 32.2778 50.8547 32.2778Z" stroke="#FEFCFD" stroke-width="4.23771" stroke-linecap="round" stroke-linejoin="round"/>
<path d="M14 32.2771V17.8218C14 15.4087 16.3466 13.0029 19.0266 13.0029C21.713 13.0029 24.0533 15.4075 24.0533 17.8218V32.2771" stroke="#FEFCFD" stroke-width="4.23771" stroke-linecap="round" stroke-linejoin="round"/>
<path d="M24.052 17.8198C24.052 15.4068 26.3973 13.001 29.0774 13.001C31.7637 13.001 34.104 15.4055 34.104 17.8198V32.2752M14 57.9789V43.5224C14 41.1093 16.3453 38.7023 19.0254 38.7023C21.7117 38.7023 24.052 41.1081 24.052 43.5224M24.052 43.5224V57.9789M24.052 43.5224C24.052 41.1093 26.3973 38.7023 29.0774 38.7023C31.7637 38.7023 34.104 41.1081 34.104 43.5224V57.9789" stroke="#FEFCFD" stroke-width="4.23771" stroke-linecap="round" stroke-linejoin="round"/>
<path d="M50.8547 57.979C56.4063 57.979 60.9067 53.6635 60.9067 48.3401C60.9067 43.0167 56.4063 38.7012 50.8547 38.7012C45.3032 38.7012 40.8027 43.0167 40.8027 48.3401C40.8027 53.6635 45.3032 57.979 50.8547 57.979Z" stroke="#FEFCFD" stroke-width="4.23771" stroke-linecap="round" stroke-linejoin="round"/>
</svg>
