<svg width="40" height="24" viewBox="0 0 40 24" fill="none" xmlns="http://www.w3.org/2000/svg">
<g clip-path="url(#clip0_23_391)">
<g clip-path="url(#clip1_23_391)">
<mask id="mask0_23_391" style="mask-type:alpha" maskUnits="userSpaceOnUse" x="0" y="0" width="24" height="24">
<path d="M24 0H0V24H24V0Z" fill="#D9D9D9"/>
</mask>
<g mask="url(#mask0_23_391)">
<path d="M12.4376 17.2376C12.6789 16.9956 12.7996 16.6996 12.7996 16.3496C12.7996 15.9996 12.6789 15.7036 12.4376 15.4616C12.1963 15.2196 11.9003 15.0989 11.5496 15.0996C11.1989 15.1003 10.9033 15.2213 10.6626 15.4626C10.4219 15.7039 10.3009 15.9996 10.2996 16.3496C10.2983 16.6996 10.4193 16.9956 10.6626 17.2376C10.9059 17.4796 11.2016 17.6003 11.5496 17.5996C11.8976 17.5989 12.1936 17.4779 12.4376 17.2366M10.6496 13.7496H12.4996C12.4996 13.1996 12.5623 12.7663 12.6876 12.4496C12.8129 12.1329 13.1669 11.6996 13.7496 11.1496C14.1829 10.7163 14.5246 10.3036 14.7746 9.9116C15.0246 9.5196 15.1496 9.04894 15.1496 8.49961C15.1496 7.56627 14.8079 6.84961 14.1246 6.34961C13.4413 5.84961 12.6329 5.59961 11.6996 5.59961C10.7496 5.59961 9.97894 5.84961 9.38761 6.34961C8.79627 6.84961 8.38361 7.44961 8.14961 8.14961L9.7996 8.79961C9.88294 8.49961 10.0706 8.17461 10.3626 7.82461C10.6546 7.47461 11.1003 7.29961 11.6996 7.29961C12.2329 7.29961 12.6329 7.44561 12.8996 7.73761C13.1663 8.02961 13.2996 8.35027 13.2996 8.69961C13.2996 9.03294 13.1996 9.3456 12.9996 9.6376C12.7996 9.9296 12.5496 10.2003 12.2496 10.4496C11.5163 11.0996 11.0663 11.5913 10.8996 11.9246C10.7329 12.2579 10.6496 12.8663 10.6496 13.7496ZM11.5996 21.5996C10.2163 21.5996 8.91627 21.3373 7.69961 20.8126C6.48294 20.2879 5.42461 19.5753 4.52461 18.6746C3.62461 17.7739 2.91228 16.7156 2.38761 15.4996C1.86294 14.2836 1.60028 12.9836 1.59961 11.5996C1.59894 10.2156 1.86161 8.91561 2.38761 7.69961C2.91361 6.48361 3.62594 5.42528 4.52461 4.52461C5.42327 3.62395 6.48161 2.91161 7.69961 2.38761C8.91761 1.86361 10.2176 1.60095 11.5996 1.59961C12.9816 1.59828 14.2816 1.86095 15.4996 2.38761C16.7176 2.91428 17.7759 3.62661 18.6746 4.52461C19.5733 5.42261 20.2859 6.48094 20.8126 7.69961C21.3393 8.91827 21.6016 10.2183 21.5996 11.5996C21.5976 12.9809 21.3349 14.2809 20.8116 15.4996C20.2883 16.7183 19.5759 17.7766 18.6746 18.6746C17.7733 19.5726 16.7149 20.2853 15.4996 20.8126C14.2843 21.3399 12.9843 21.6023 11.5996 21.5996ZM11.5996 19.5996C13.8329 19.5996 15.7246 18.8246 17.2746 17.2746C18.8246 15.7246 19.5996 13.8329 19.5996 11.5996C19.5996 9.36627 18.8246 7.47461 17.2746 5.92461C15.7246 4.37461 13.8329 3.59961 11.5996 3.59961C9.36627 3.59961 7.47461 4.37461 5.92461 5.92461C4.37461 7.47461 3.59961 9.36627 3.59961 11.5996C3.59961 13.8329 4.37461 15.7246 5.92461 17.2746C7.47461 18.8246 9.36627 19.5996 11.5996 19.5996Z" fill="#D9D9D9"/>
</g>
</g>
</g>
<defs>
<clipPath id="clip0_23_391">
<rect width="24" height="24" fill="white"/>
</clipPath>
<clipPath id="clip1_23_391">
<rect width="24" height="24" fill="white"/>
</clipPath>
</defs>
</svg>
