<svg width="32" height="32" viewBox="0 0 32 32" fill="none" xmlns="http://www.w3.org/2000/svg">
<g clip-path="url(#clip0_41_11341)">
<mask id="mask0_41_11341" style="mask-type:alpha" maskUnits="userSpaceOnUse" x="0" y="0" width="32" height="32">
<path d="M32 0H0V32H32V0Z" fill="#D9D9D9"/>
</mask>
<g mask="url(#mask0_41_11341)">
<path d="M16.002 28.6668C14.4289 28.6668 12.9552 28.3694 11.581 27.7745C10.2066 27.1796 9.0082 26.3711 7.98597 25.3488C6.96375 24.3266 6.1552 23.1286 5.56031 21.7548C4.96542 20.3808 4.66797 18.9073 4.66797 17.3342C4.66797 15.7611 4.96542 14.2874 5.56031 12.9132C6.1552 11.5387 6.96375 10.3404 7.98597 9.31823C9.0082 8.29601 10.2063 7.48745 11.5803 6.89256C12.9543 6.29767 14.428 6.00023 16.0013 6.00023H16.3553L14.914 4.55923C14.7073 4.35234 14.6073 4.11812 14.614 3.85656C14.6209 3.59501 14.72 3.36089 14.9113 3.15423C15.12 2.94734 15.3607 2.84256 15.6333 2.83989C15.906 2.83745 16.1414 2.93534 16.3397 3.13356L19.3627 6.14389C19.6038 6.38478 19.7243 6.66601 19.7243 6.98756C19.7243 7.30889 19.6038 7.59001 19.3627 7.83089L16.3653 10.8412C16.1584 11.0481 15.9209 11.1481 15.6527 11.1412C15.3842 11.1343 15.1457 11.0274 14.937 10.8205C14.7457 10.6138 14.6488 10.3776 14.6463 10.1118C14.6437 9.84612 14.7414 9.61401 14.9397 9.41556L16.3553 8.00023H16.0013C13.4013 8.00023 11.1958 8.90578 9.38464 10.7168C7.57353 12.528 6.66797 14.7335 6.66797 17.3335C6.66797 19.9335 7.57353 22.1391 9.38464 23.9502C11.1958 25.7613 13.4013 26.6668 16.0013 26.6668C18.6013 26.6668 20.8069 25.7613 22.618 23.9502C24.4291 22.1391 25.3347 19.9335 25.3347 17.3335C25.3347 17.0502 25.4306 16.8127 25.6223 16.6212C25.8141 16.4294 26.0517 16.3335 26.335 16.3335C26.6186 16.3335 26.856 16.4294 27.0473 16.6212C27.2389 16.8127 27.3347 17.0502 27.3347 17.3335C27.3347 18.9068 27.0372 20.3805 26.4423 21.7545C25.8474 23.1285 25.0389 24.3266 24.0167 25.3488C22.9944 26.3711 21.7964 27.1796 20.4227 27.7745C19.0487 28.3694 17.5751 28.6668 16.002 28.6668ZM12.2833 15.1285H11.1553C10.9256 15.1285 10.7357 15.0534 10.5857 14.9032C10.4354 14.7532 10.3603 14.5635 10.3603 14.3342C10.3603 14.1046 10.4354 13.9146 10.5857 13.7642C10.7357 13.6137 10.9256 13.5385 11.1553 13.5385H13.0783C13.3079 13.5385 13.4978 13.6136 13.648 13.7638C13.798 13.9141 13.873 14.104 13.873 14.3335V20.3335C13.873 20.5631 13.798 20.753 13.648 20.9032C13.498 21.0534 13.3083 21.1285 13.079 21.1285C12.8494 21.1285 12.6594 21.0534 12.509 20.9032C12.3586 20.753 12.2833 20.5631 12.2833 20.3335V15.1285ZM16.7963 21.1285C16.4186 21.1285 16.1019 21.0007 15.8463 20.7452C15.5908 20.4896 15.463 20.173 15.463 19.7952V14.8718C15.463 14.4941 15.5908 14.1774 15.8463 13.9218C16.1019 13.6663 16.4186 13.5385 16.7963 13.5385H19.309C19.6868 13.5385 20.0034 13.6663 20.259 13.9218C20.5146 14.1774 20.6423 14.4941 20.6423 14.8718V19.7952C20.6423 20.173 20.5146 20.4896 20.259 20.7452C20.0034 21.0007 19.6868 21.1285 19.309 21.1285H16.7963ZM17.2063 19.5385H18.8987C18.95 19.5385 18.9886 19.5257 19.0143 19.5002C19.0399 19.4746 19.0527 19.4362 19.0527 19.3848V15.2822C19.0527 15.2308 19.0399 15.1924 19.0143 15.1668C18.9886 15.1413 18.95 15.1285 18.8987 15.1285H17.2063C17.1552 15.1285 17.1168 15.1413 17.091 15.1668C17.0654 15.1924 17.0527 15.2308 17.0527 15.2822V19.3848C17.0527 19.4362 17.0654 19.4746 17.091 19.5002C17.1168 19.5257 17.1552 19.5385 17.2063 19.5385Z" fill="#D9D9D9"/>
</g>
</g>
<defs>
<clipPath id="clip0_41_11341">
<rect width="32" height="32" fill="white"/>
</clipPath>
</defs>
</svg>
