<svg width="32" height="32" viewBox="0 0 32 32" fill="none" xmlns="http://www.w3.org/2000/svg">
<g clip-path="url(#clip0_41_11332)">
<mask id="mask0_41_11332" style="mask-type:alpha" maskUnits="userSpaceOnUse" x="0" y="0" width="32" height="32">
<path d="M32 0H0V32H32V0Z" fill="#D9D9D9"/>
</mask>
<g mask="url(#mask0_41_11332)">
<path d="M12.2833 15.1285H11.1553C10.9256 15.1285 10.7357 15.0534 10.5857 14.9032C10.4354 14.7532 10.3603 14.5635 10.3603 14.3342C10.3603 14.1046 10.4354 13.9146 10.5857 13.7642C10.7357 13.6137 10.9256 13.5385 11.1553 13.5385H13.0783C13.3079 13.5385 13.4978 13.6136 13.648 13.7638C13.798 13.9141 13.873 14.104 13.873 14.3335V20.3335C13.873 20.5631 13.798 20.753 13.648 20.9032C13.498 21.0534 13.3083 21.1285 13.079 21.1285C12.8494 21.1285 12.6594 21.0534 12.509 20.9032C12.3586 20.753 12.2833 20.5631 12.2833 20.3335V15.1285ZM16.7963 21.1285C16.4186 21.1285 16.1019 21.0007 15.8463 20.7452C15.5908 20.4896 15.463 20.173 15.463 19.7952V14.8718C15.463 14.4941 15.5908 14.1774 15.8463 13.9218C16.1019 13.6663 16.4186 13.5385 16.7963 13.5385H19.309C19.6868 13.5385 20.0034 13.6663 20.259 13.9218C20.5146 14.1774 20.6423 14.4941 20.6423 14.8718V19.7952C20.6423 20.173 20.5146 20.4896 20.259 20.7452C20.0034 21.0007 19.6868 21.1285 19.309 21.1285H16.7963ZM17.2063 19.5385H18.8987C18.95 19.5385 18.9886 19.5257 19.0143 19.5002C19.0399 19.4746 19.0527 19.4362 19.0527 19.3848V15.2822C19.0527 15.2308 19.0399 15.1924 19.0143 15.1668C18.9886 15.1413 18.95 15.1285 18.8987 15.1285H17.2063C17.1552 15.1285 17.1168 15.1413 17.091 15.1668C17.0654 15.1924 17.0527 15.2308 17.0527 15.2822V19.3848C17.0527 19.4362 17.0654 19.4746 17.091 19.5002C17.1168 19.5257 17.1552 19.5385 17.2063 19.5385ZM16.002 28.6668C14.4289 28.6668 12.9552 28.3694 11.581 27.7745C10.2066 27.1796 9.0082 26.3711 7.98597 25.3488C6.96375 24.3266 6.1552 23.1285 5.56031 21.7545C4.96542 20.3805 4.66797 18.9068 4.66797 17.3335C4.66797 17.0502 4.76386 16.8127 4.95564 16.6212C5.14742 16.4294 5.38497 16.3335 5.66831 16.3335C5.95186 16.3335 6.18931 16.4294 6.38064 16.6212C6.5722 16.8127 6.66797 17.0502 6.66797 17.3335C6.66797 19.9335 7.57353 22.1391 9.38464 23.9502C11.1958 25.7613 13.4013 26.6668 16.0013 26.6668C18.6013 26.6668 20.8069 25.7613 22.618 23.9502C24.4291 22.1391 25.3347 19.9335 25.3347 17.3335C25.3347 14.7335 24.4291 12.528 22.618 10.7168C20.8069 8.90578 18.6013 8.00023 16.0013 8.00023H15.6473L17.063 9.41556C17.2612 9.61401 17.359 9.84612 17.3563 10.1118C17.3539 10.3776 17.257 10.6138 17.0657 10.8205C16.857 11.0274 16.6184 11.1343 16.35 11.1412C16.0818 11.1481 15.8442 11.0481 15.6373 10.8412L12.64 7.83089C12.3989 7.59001 12.2783 7.30889 12.2783 6.98756C12.2783 6.66601 12.3989 6.38478 12.64 6.14389L15.663 3.13356C15.8612 2.93534 16.0967 2.83745 16.3693 2.83989C16.642 2.84256 16.8827 2.94734 17.0913 3.15423C17.2827 3.36089 17.3818 3.59501 17.3887 3.85656C17.3953 4.11812 17.2953 4.35234 17.0887 4.55923L15.6473 6.00023H16.0013C17.5747 6.00023 19.0483 6.29767 20.4223 6.89256C21.7963 7.48745 22.9944 8.29601 24.0167 9.31823C25.0389 10.3404 25.8474 11.5384 26.4423 12.9122C27.0372 14.2862 27.3347 15.7597 27.3347 17.3328C27.3347 18.906 27.0372 20.3796 26.4423 21.7538C25.8474 23.1283 25.0389 24.3266 24.0167 25.3488C22.9944 26.3711 21.7964 27.1796 20.4227 27.7745C19.0487 28.3694 17.5751 28.6668 16.002 28.6668Z" fill="#D9D9D9"/>
</g>
</g>
<defs>
<clipPath id="clip0_41_11332">
<rect width="32" height="32" fill="white"/>
</clipPath>
</defs>
</svg>
