<svg width="12" height="12" viewBox="0 0 12 12" fill="none" xmlns="http://www.w3.org/2000/svg">
<path opacity="0.8" d="M10.7152 4.75006L6.93789 8.52732L6.93776 10.1671C6.93776 10.245 6.92318 10.318 6.89403 10.3863C6.86487 10.4544 6.82432 10.5144 6.77238 10.5664L6.54846 10.7903C6.43812 10.9006 6.30634 10.9561 6.15314 10.9567C6.00002 10.9574 5.86706 10.9014 5.75428 10.7886L3.77503 8.80938L0.95263 11.6317C0.84132 11.743 0.71038 11.7987 0.55979 11.7986C0.4092 11.7985 0.27826 11.7428 0.16695 11.6315C0.0555601 11.5201 -8.9891e-05 11.3892 1.08988e-07 11.2388C1.08988e-07 11.0883 0.0556501 10.9574 0.16695 10.8461L2.98936 8.0237L1.01011 6.04446C0.89733 5.93167 0.84128 5.79872 0.84198 5.6456C0.84259 5.49239 0.89807 5.36062 1.00841 5.25027L1.23233 5.02636C1.28427 4.97441 1.34429 4.93386 1.41238 4.90471C1.48064 4.87555 1.55371 4.86097 1.63158 4.86097L3.27141 4.86084L7.04867 1.08358L6.91773 0.95263C6.80642 0.84133 6.75082 0.71038 6.7509 0.5598C6.7509 0.40912 6.80656 0.27813 6.91786 0.16683C7.02925 0.0554403 7.1602 -0.000169611 7.3107 3.88581e-07C7.46115 3.88581e-07 7.59205 0.0556604 7.70345 0.16696L11.6318 4.09533C11.7431 4.20663 11.7987 4.33758 11.7986 4.48817C11.7986 4.63884 11.743 4.76983 11.6317 4.88114C11.5203 4.99253 11.3894 5.04814 11.2389 5.04796C11.0884 5.04796 10.9575 4.99231 10.8461 4.88101L10.7152 4.75006Z" fill="white"/>
</svg>
