<svg width="3" height="13" viewBox="0 0 3 13" fill="none" xmlns="http://www.w3.org/2000/svg">
<path d="M1.25 0C1.5938 0 1.888 0.12243 2.1327 0.36729C2.3776 0.61202 2.5 0.90625 2.5 1.25C2.5 1.59375 2.3776 1.88806 2.1327 2.13292C1.888 2.37764 1.5938 2.5 1.25 2.5C0.9063 2.5 0.612 2.37764 0.3673 2.13292C0.1224 1.88806 0 1.59375 0 1.25C0 0.90625 0.1224 0.61202 0.3673 0.36729C0.612 0.12243 0.9063 0 1.25 0ZM1.25 4.80772C1.5938 4.80772 1.888 4.93012 2.1327 5.17502C2.3776 5.41972 2.5 5.71392 2.5 6.05772C2.5 6.40142 2.3776 6.69572 2.1327 6.94042C1.888 7.18532 1.5938 7.30772 1.25 7.30772C0.9063 7.30772 0.612 7.18532 0.3673 6.94042C0.1224 6.69572 0 6.40142 0 6.05772C0 5.71392 0.1224 5.41972 0.3673 5.17502C0.612 4.93012 0.9063 4.80772 1.25 4.80772ZM1.25 9.61542C1.5938 9.61542 1.888 9.73782 2.1327 9.98252C2.3776 10.2273 2.5 10.5216 2.5 10.8654C2.5 11.2091 2.3776 11.5034 2.1327 11.7481C1.888 11.993 1.5938 12.1154 1.25 12.1154C0.9063 12.1154 0.612 11.993 0.3673 11.7481C0.1224 11.5034 0 11.2091 0 10.8654C0 10.5216 0.1224 10.2273 0.3673 9.98252C0.612 9.73782 0.9063 9.61542 1.25 9.61542Z" fill="#D9D9D9"/>
</svg>
