<svg width="40" height="16" viewBox="0 0 40 16" fill="none" xmlns="http://www.w3.org/2000/svg">
<path d="M37.9512 13.9521L35.9512 1.95215L30.9512 13.9521M13.9512 13.9521L15.9512 1.95215M1.95117 1.95215H3.95117V13.9521H4.95117L9.95117 1.95215M27.9512 2.95215C27.9512 2.68693 27.8458 2.43258 27.6583 2.24504C27.4707 2.0575 27.2164 1.95215 26.9512 1.95215H25.4512C24.0092 1.95215 22.7772 2.99415 22.5412 4.41815L22.3612 5.48615C22.311 5.78957 22.3274 6.10028 22.4093 6.39672C22.4912 6.69315 22.6366 6.96822 22.8355 7.20284C23.0343 7.43745 23.2818 7.626 23.5608 7.75539C23.8398 7.88478 24.1436 7.95192 24.4512 7.95215C24.7587 7.95238 25.0625 8.01952 25.3415 8.14891C25.6205 8.2783 25.868 8.46684 26.0669 8.70146C26.2657 8.93607 26.4111 9.21114 26.493 9.50758C26.5749 9.80402 26.5914 10.1147 26.5412 10.4181L26.3612 11.4861C26.2462 12.175 25.8907 12.8008 25.3579 13.2523C24.8251 13.7038 24.1495 13.9517 23.4512 13.9521H21.9512C21.686 13.9521 21.4316 13.8468 21.2441 13.6593C21.0565 13.4717 20.9512 13.2174 20.9512 12.9521M31.9512 11.9521H37.3512" stroke="#E8E9F9" stroke-width="3.90398" stroke-linecap="round" stroke-linejoin="round"/>
</svg>
