<svg width="17" height="15" viewBox="0 0 17 15" fill="none" xmlns="http://www.w3.org/2000/svg">
<path d="M14.188 13.6304V1.03622C14.188 0.74262 14.2873 0.49658 14.486 0.29809C14.6848 0.09936 14.931 0 15.2249 0C15.5185 0 15.7645 0.09936 15.963 0.29809C16.1613 0.49658 16.2604 0.74262 16.2604 1.03622V13.6304C16.2604 13.924 16.161 14.1701 15.9623 14.3686C15.7638 14.5673 15.5177 14.6667 15.2238 14.6667C14.93 14.6667 14.684 14.5673 14.4857 14.3686C14.2872 14.1701 14.188 13.924 14.188 13.6304ZM0 12.3283V2.3384C0 1.96375 0.12481 1.66187 0.37442 1.43275C0.62426 1.20386 0.91567 1.08941 1.24864 1.08941C1.36378 1.08941 1.48156 1.10093 1.602 1.12395C1.72243 1.14698 1.83584 1.20017 1.94222 1.28353L9.44547 6.2999C9.63497 6.4291 9.77487 6.5805 9.86517 6.7541C9.95547 6.9277 10.0006 7.1208 10.0006 7.3333C10.0006 7.5459 9.95547 7.739 9.86517 7.9126C9.77487 8.0862 9.63497 8.2376 9.44547 8.3668L1.94222 13.3831C1.83584 13.4665 1.72243 13.5197 1.602 13.5427C1.48156 13.5657 1.36378 13.5773 1.24864 13.5773C0.91567 13.5773 0.62426 13.4628 0.37442 13.2339C0.12481 13.0048 0 12.7029 0 12.3283ZM2.07244 10.7874L7.27457 7.3333L2.07244 3.8793V10.7874Z" fill="#D9D9D9"/>
</svg>
