<svg width="18" height="16" viewBox="0 0 18 16" fill="none" xmlns="http://www.w3.org/2000/svg">
<path d="M8.87997 16C8.67957 16 8.47837 15.9629 8.27627 15.8886C8.07417 15.8142 7.89627 15.6978 7.74267 15.5394L6.3986 14.2777C4.73965 12.7157 3.25848 11.1812 1.95509 9.6742C0.65169 8.1672 0 6.5529 0 4.83106C0 3.45985 0.44772 2.31182 1.34316 1.387C2.23875 0.46233 3.35049 0 4.67836 0C5.43283 0 6.17809 0.17964 6.91417 0.53891C7.65007 0.89818 8.30827 1.48161 8.88887 2.2892C9.46947 1.48161 10.1277 0.89818 10.8637 0.53891C11.5997 0.17964 12.345 0 13.0994 0C14.4273 0 15.5391 0.46233 16.4346 1.387C17.3301 2.31182 17.7778 3.45985 17.7778 4.83106C17.7778 6.5715 17.115 8.2039 15.7895 9.7281C14.464 11.2523 12.9861 12.7737 11.3558 14.2925L10.026 15.5394C9.87247 15.6978 9.69327 15.8142 9.48817 15.8886C9.28297 15.9629 9.08027 16 8.87997 16ZM8.21587 3.75712C7.70967 2.96064 7.17677 2.37688 6.61707 2.00586C6.05754 1.63483 5.4113 1.44932 4.67836 1.44932C3.74269 1.44932 2.96296 1.77139 2.33918 2.41553C1.7154 3.05967 1.40351 3.86485 1.40351 4.83106C1.40351 5.60645 1.64553 6.4172 2.12959 7.2633C2.61364 8.1093 3.22121 8.9504 3.95228 9.7865C4.68335 10.6228 5.4754 11.4397 6.32842 12.2373C7.18127 13.0351 7.97177 13.7765 8.69987 14.4615C8.75387 14.5111 8.81687 14.5359 8.88887 14.5359C8.96097 14.5359 9.02397 14.5111 9.07787 14.4615C9.80597 13.7765 10.5965 13.0351 11.4494 12.2373C12.3024 11.4397 13.0945 10.6228 13.8255 9.7865C14.5566 8.9504 15.1642 8.1093 15.6482 7.2633C16.1323 6.4172 16.3743 5.60645 16.3743 4.83106C16.3743 3.86485 16.0624 3.05967 15.4386 2.41553C14.8148 1.77139 14.0351 1.44932 13.0994 1.44932C12.3665 1.44932 11.7203 1.63483 11.1607 2.00586C10.601 2.37688 10.0681 2.96064 9.56187 3.75712C9.48267 3.88095 9.38307 3.97387 9.26317 4.03587C9.14327 4.09771 9.01847 4.12863 8.88887 4.12863C8.75927 4.12863 8.63457 4.09771 8.51457 4.03587C8.39467 3.97387 8.29517 3.88095 8.21587 3.75712Z" fill="white"/>
</svg>
