<svg width="24" height="12" viewBox="0 0 24 12" fill="none" xmlns="http://www.w3.org/2000/svg">
<path d="M4.55089e-07 6.00234C-0.000513962 4.6811 0.435095 3.39664 1.23922 2.34829C2.04335 1.29994 3.17103 0.546323 4.44726 0.204401C5.72349 -0.137522 7.07689 -0.0486323 8.29743 0.457276C9.51797 0.963183 10.5374 1.85782 11.1975 3.00234H21C21.0986 3.00216 21.1962 3.02141 21.2873 3.05899C21.3784 3.09657 21.4612 3.15173 21.531 3.22134L23.781 5.47134C23.8508 5.54101 23.9063 5.62377 23.9441 5.71489C23.9819 5.806 24.0013 5.90369 24.0013 6.00234C24.0013 6.10099 23.9819 6.19867 23.9441 6.28979C23.9063 6.38091 23.8508 6.46367 23.781 6.53334L21.531 8.78334C21.4613 8.85318 21.3786 8.9086 21.2874 8.94641C21.1963 8.98422 21.0987 9.00368 21 9.00368C20.9013 9.00368 20.8037 8.98422 20.7126 8.94641C20.6214 8.9086 20.5387 8.85318 20.469 8.78334L19.5 7.81284L18.531 8.78334C18.4613 8.85318 18.3786 8.9086 18.2874 8.94641C18.1963 8.98422 18.0987 9.00368 18 9.00368C17.9013 9.00368 17.8037 8.98422 17.7126 8.94641C17.6214 8.9086 17.5387 8.85318 17.469 8.78334L16.5 7.81284L15.531 8.78334C15.4613 8.85318 15.3786 8.9086 15.2874 8.94641C15.1963 8.98422 15.0987 9.00368 15 9.00368C14.9013 9.00368 14.8037 8.98422 14.7126 8.94641C14.6214 8.9086 14.5387 8.85318 14.469 8.78334L13.5 7.81284L12.531 8.78334C12.4612 8.85294 12.3784 8.90811 12.2873 8.94569C12.1962 8.98326 12.0986 9.00251 12 9.00234H11.1975C10.5374 10.1469 9.51797 11.0415 8.29743 11.5474C7.07689 12.0533 5.72349 12.1422 4.44726 11.8003C3.17103 11.4584 2.04335 10.7047 1.23922 9.65639C0.435095 8.60804 -0.000513962 7.32357 4.55089e-07 6.00234ZM6 1.50234C5.19471 1.50264 4.40426 1.71904 3.7111 2.12895C3.01795 2.53886 2.44749 3.12727 2.05924 3.83278C1.67099 4.5383 1.47918 5.33508 1.50381 6.13999C1.52845 6.9449 1.76862 7.72846 2.19929 8.40891C2.62995 9.08937 3.23532 9.64179 3.95224 10.0085C4.66917 10.3753 5.47137 10.543 6.27518 10.494C7.07898 10.4451 7.85492 10.1813 8.52205 9.73032C9.18919 9.2793 9.72307 8.65751 10.068 7.92984C10.1289 7.80198 10.2247 7.69398 10.3445 7.61832C10.4642 7.54267 10.6029 7.50246 10.7445 7.50234H11.6895L12.969 6.22134C13.0387 6.15149 13.1214 6.09608 13.2126 6.05827C13.3037 6.02046 13.4013 6.001 13.5 6.001C13.5987 6.001 13.6963 6.02046 13.7874 6.05827C13.8786 6.09608 13.9613 6.15149 14.031 6.22134L15 7.19184L15.969 6.22134C16.0387 6.15149 16.1214 6.09608 16.2126 6.05827C16.3037 6.02046 16.4013 6.001 16.5 6.001C16.5987 6.001 16.6963 6.02046 16.7874 6.05827C16.8786 6.09608 16.9613 6.15149 17.031 6.22134L18 7.19184L18.969 6.22134C19.0387 6.15149 19.1214 6.09608 19.2126 6.05827C19.3037 6.02046 19.4013 6.001 19.5 6.001C19.5987 6.001 19.6963 6.02046 19.7874 6.05827C19.8786 6.09608 19.9613 6.15149 20.031 6.22134L21 7.19184L22.1895 6.00234L20.6895 4.50234H10.7445C10.6029 4.50222 10.4642 4.46201 10.3445 4.38635C10.2247 4.3107 10.1289 4.2027 10.068 4.07484C9.70304 3.3049 9.12698 2.65441 8.40684 2.199C7.68669 1.7436 6.85206 1.50201 6 1.50234Z" fill="#D9D9D9"/>
</svg>
