<svg width="14" height="18" viewBox="0 0 14 18" fill="none" xmlns="http://www.w3.org/2000/svg">
<path d="M0 16.4791V1.52089C0 1.07662 0.1443 0.71199 0.4329 0.42703C0.72149 0.14234 1.05828 0 1.44325 0C1.56352 0 1.68963 0.01837 1.82158 0.05511C1.95354 0.09158 2.07952 0.14655 2.19952 0.22003L13.3441 7.7151C13.5629 7.8728 13.7268 8.0615 13.8359 8.2814C13.9453 8.5016 14 8.7411 14 9C14 9.2589 13.9453 9.4984 13.8359 9.7186C13.7268 9.9385 13.5629 10.1272 13.3441 10.2849L2.19952 17.78C2.07925 17.8534 1.95287 17.9084 1.82039 17.9449C1.68817 17.9816 1.56193 18 1.44166 18C1.05642 18 0.7199 17.8577 0.4321 17.573C0.14403 17.288 0 16.9234 0 16.4791Z" fill="white"/>
</svg>
