<svg width="17" height="18" viewBox="0 0 17 18" fill="none" xmlns="http://www.w3.org/2000/svg">
<path d="M13.5525 18C12.8434 18 12.2414 17.752 11.7464 17.2561C11.2515 16.7601 11.0041 16.1579 11.0041 15.4494C11.0041 15.3547 11.0369 15.1245 11.1024 14.7588L4.36523 10.7927C4.13692 11.0295 3.86565 11.215 3.55144 11.3492C3.23723 11.4834 2.9006 11.5506 2.54155 11.5506C1.8356 11.5506 1.23552 11.3016 0.74131 10.8036C0.2471 10.3056 0 9.7044 0 9C0 8.2956 0.2471 7.6944 0.74131 7.1964C1.23552 6.69845 1.8356 6.44945 2.54155 6.44945C2.9006 6.44945 3.23723 6.51655 3.55144 6.65076C3.86565 6.78497 4.13692 6.9705 4.36523 7.2073L11.1024 3.25018C11.0648 3.13366 11.039 3.0195 11.025 2.90771C11.0111 2.79592 11.0041 2.67687 11.0041 2.55055C11.0041 1.84208 11.2523 1.23987 11.7485 0.74392C12.2449 0.24797 12.8477 0 13.5568 0C14.2659 0 14.8679 0.24821 15.3627 0.74463C15.8577 1.24089 16.1052 1.84358 16.1052 2.55269C16.1052 3.26179 15.8573 3.86384 15.3613 4.35884C14.8654 4.85368 14.2631 5.10111 13.5547 5.10111C13.1939 5.10111 12.8584 5.0325 12.5481 4.89529C12.2377 4.75808 11.9683 4.57105 11.74 4.33421L5.00281 8.3004C5.04039 8.4171 5.06621 8.5312 5.08026 8.6428C5.09415 8.7546 5.1011 8.8737 5.1011 9C5.1011 9.1263 5.09415 9.2454 5.08026 9.3572C5.06621 9.4688 5.04039 9.5829 5.00281 9.6996L11.74 13.6658C11.9683 13.4289 12.2377 13.2419 12.5481 13.1047C12.8584 12.9675 13.1939 12.8989 13.5547 12.8989C14.2631 12.8989 14.8654 13.147 15.3613 13.6433C15.8573 14.1397 16.1052 14.7425 16.1052 15.4516C16.1052 16.1607 15.857 16.7627 15.3606 17.2575C14.8643 17.7525 14.2616 18 13.5525 18ZM13.5547 16.5789C13.8747 16.5789 14.143 16.4707 14.3595 16.2542C14.5759 16.0378 14.6842 15.7695 14.6842 15.4494C14.6842 15.1294 14.5759 14.8611 14.3595 14.6447C14.143 14.428 13.8747 14.3197 13.5547 14.3197C13.2346 14.3197 12.9664 14.428 12.7499 14.6447C12.5333 14.8611 12.4249 15.1294 12.4249 15.4494C12.4249 15.7695 12.5333 16.0378 12.7499 16.2542C12.9664 16.4707 13.2346 16.5789 13.5547 16.5789ZM2.54155 10.1295C2.86413 10.1295 3.13452 10.0213 3.35273 9.8048C3.5711 9.5883 3.68029 9.3201 3.68029 9C3.68029 8.6799 3.5711 8.4117 3.35273 8.1952C3.13452 7.9787 2.86413 7.8705 2.54155 7.8705C2.22402 7.8705 1.95789 7.9787 1.74315 8.1952C1.52842 8.4117 1.42105 8.6799 1.42105 9C1.42105 9.3201 1.52842 9.5883 1.74315 9.8048C1.95789 10.0213 2.22402 10.1295 2.54155 10.1295ZM13.5547 3.68029C13.8747 3.68029 14.143 3.57197 14.3595 3.35534C14.5759 3.13887 14.6842 2.87061 14.6842 2.55055C14.6842 2.2305 14.5759 1.96224 14.3595 1.74576C14.143 1.52929 13.8747 1.42105 13.5547 1.42105C13.2346 1.42105 12.9664 1.52929 12.7499 1.74576C12.5333 1.96224 12.4249 2.2305 12.4249 2.55055C12.4249 2.87061 12.5333 3.13887 12.7499 3.35534C12.9664 3.57197 13.2346 3.68029 13.5547 3.68029Z" fill="white"/>
</svg>
