<svg width="34" height="30" viewBox="0 0 34 30" fill="none" xmlns="http://www.w3.org/2000/svg">
<path d="M10 30V26.6667H3.33333C2.41667 26.6667 1.63222 26.3406 0.98 25.6883C0.327778 25.0361 0.00111111 24.2511 0 23.3333V3.33333C0 2.41667 0.326667 1.63222 0.98 0.98C1.63333 0.327778 2.41778 0.00111111 3.33333 0H30C30.9167 0 31.7017 0.326667 32.355 0.98C33.0083 1.63333 33.3344 2.41778 33.3333 3.33333V23.3333C33.3333 24.25 33.0072 25.035 32.355 25.6883C31.7028 26.3417 30.9178 26.6678 30 26.6667H23.3333V30H10ZM3.33333 23.3333H30V3.33333H3.33333V23.3333Z" fill="white"/>
</svg>
