<svg width="25" height="24" viewBox="0 0 25 24" fill="none" xmlns="http://www.w3.org/2000/svg">
<path d="M2.11765 21.8824H5.59271C5.89271 21.8824 6.14424 21.9839 6.34734 22.1869C6.55014 22.39 6.65154 22.6415 6.65154 22.9415C6.65154 23.2418 6.55014 23.4932 6.34734 23.6958C6.14424 23.8986 5.89271 24 5.59271 24H1.27624C0.91459 24 0.61153 23.8776 0.36706 23.6329C0.12236 23.3885 0 23.0854 0 22.7238V18.4073C0 18.1073 0.10153 17.8558 0.30459 17.6527C0.50765 17.4499 0.75918 17.3485 1.05918 17.3485C1.35942 17.3485 1.61083 17.4499 1.81342 17.6527C2.01624 17.8558 2.11765 18.1073 2.11765 18.4073V21.8824ZM21.8957 21.8824V18.4073C21.8957 18.1073 21.9973 17.8558 22.2003 17.6527C22.4034 17.4499 22.655 17.3485 22.9553 17.3485C23.2553 17.3485 23.5067 17.4499 23.7095 17.6527C23.9121 17.8558 24.0134 18.1073 24.0134 18.4073V22.7238C24.0134 23.0854 23.8911 23.3885 23.6467 23.6329C23.402 23.8776 23.0989 24 22.7375 24H18.4207C18.1207 24 17.8693 23.8985 17.6664 23.6954C17.4634 23.4924 17.3618 23.2408 17.3618 22.9408C17.3618 22.6406 17.4634 22.3892 17.6664 22.1866C17.8693 21.9838 18.1207 21.8824 18.4207 21.8824H21.8957ZM2.11765 2.11765V5.59271C2.11765 5.89271 2.01612 6.1442 1.81306 6.3473C1.61 6.5501 1.35847 6.6515 1.05847 6.6515C0.75824 6.6515 0.50683 6.5501 0.30424 6.3473C0.10142 6.1442 0 5.89271 0 5.59271V1.27623C0 0.91459 0.12236 0.61153 0.36706 0.36706C0.61153 0.12235 0.91459 0 1.27624 0H5.59271C5.89271 0 6.14424 0.10153 6.34734 0.30459C6.55014 0.50765 6.65154 0.75918 6.65154 1.05918C6.65154 1.35941 6.55014 1.61082 6.34734 1.81341C6.14424 2.01624 5.89271 2.11765 5.59271 2.11765H2.11765ZM21.8957 2.11765H18.4207C18.1207 2.11765 17.8693 2.01612 17.6664 1.81306C17.4634 1.61 17.3618 1.35847 17.3618 1.05847C17.3618 0.75823 17.4634 0.50682 17.6664 0.30424C17.8693 0.10141 18.1207 0 18.4207 0H22.7375C23.0989 0 23.402 0.12235 23.6467 0.36706C23.8911 0.61153 24.0134 0.91459 24.0134 1.27623V5.59271C24.0134 5.89271 23.9118 6.1442 23.7088 6.3473C23.506 6.5501 23.2544 6.6515 22.9542 6.6515C22.654 6.6515 22.4026 6.5501 22.2 6.3473C21.9971 6.1442 21.8957 5.89271 21.8957 5.59271V2.11765Z" fill="#D9D9D9"/>
</svg>
