<svg width="11" height="7" viewBox="0 0 11 7" fill="none" xmlns="http://www.w3.org/2000/svg">
<path d="M5.3396 6.02125C5.2191 6.02125 5.10693 6.002 5.0031 5.9635C4.89926 5.925 4.80051 5.859 4.70685 5.7655L0.212602 1.27125C0.0742686 1.13275 0.00343465 0.958667 0.000101653 0.748997C-0.00306535 0.539497 0.0677686 0.362247 0.212602 0.217251C0.357604 0.072417 0.533264 0 0.739604 0C0.945934 0 1.1216 0.072417 1.2666 0.217251L5.3396 4.2905L9.41264 0.217251C9.55114 0.078917 9.72514 0.00808395 9.93484 0.00474995C10.1443 0.00158395 10.3216 0.072417 10.4666 0.217251C10.6114 0.362247 10.6838 0.537917 10.6838 0.744247C10.6838 0.950587 10.6114 1.12625 10.4666 1.27125L5.97235 5.7655C5.87868 5.859 5.77993 5.925 5.6761 5.9635C5.57226 6.002 5.4601 6.02125 5.3396 6.02125Z" fill="white"/>
</svg>
